<?xml version="1.0" standalone="no"?><!DOCTYPE svg PUBLIC "-//W3C//DTD SVG 1.1//EN" "http://www.w3.org/Graphics/SVG/1.1/DTD/svg11.dtd"><svg t="1583478093936" class="icon" viewBox="0 0 1024 1024" version="1.1" xmlns="http://www.w3.org/2000/svg" p-id="7660" xmlns:xlink="http://www.w3.org/1999/xlink" width="200" height="200"><defs><style type="text/css"></style></defs><path d="M505.65866667 904.7392c0 46.4064-67.85706667 84.02453333-151.56266667 84.02453333s-151.5616-37.6192-151.5616-84.02453333 67.85706667-84.02453333 151.56266667-84.02453333 151.5616 37.6192 151.5616 84.02453333zM669.26933333 820.71466667c-83.7056 0-151.56266667 37.6192-151.56266666 84.02453333s67.85813333 84.02453333 151.56266666 84.02453333 151.56266667-37.6192 151.56266667-84.02453333-67.85813333-84.02453333-151.56266667-84.02453333z" fill="#FFC817" p-id="7661"></path><path d="M846.83093333 501.73653333s-11.46986667-11.75893333-23.78026666-22.63573333V344.784c0-171.7888-139.26293333-311.05066667-311.05173334-311.05066667s-311.05066667 139.26186667-311.05066666 311.05066667v134.3168c-12.30933333 10.8768-23.78026667 22.63466667-23.78026667 22.63466667-20.29333333 30.44053333-68.48853333 109.0752-68.48853333 183.2704s20.29333333 86.87893333 27.904 87.5136c7.05706667 0.58773333 33.20533333-6.46826667 64.27946666-54.032 42.0544 139.84 165.30133333 241.10613333 310.8192 241.10613333 145.74933333 0 269.15946667-101.58506667 311.02293334-241.76853333 31.264 48.16106667 57.62133333 55.28533333 64.71253333 54.6944 7.6096-0.63466667 27.90293333-13.3184 27.90293333-87.5136s-48.19626667-152.82986667-68.4896-183.26933334z" fill="#37474F" p-id="7662"></path><path d="M283.152 555.0048a400.38293333 400.38293333 0 0 0-3.70453333 54.5376c0 169.8624 105.81226667 307.56266667 236.33813333 307.56266667s236.33813333-137.70026667 236.33813333-307.56266667a400.55786667 400.55786667 0 0 0-3.70453333-54.5376H283.152z m147.04213333-378.58773333c-34.67306667 0-62.7808 38.11626667-62.7808 85.13386666 0 47.01866667 28.10666667 85.13493333 62.7808 85.13493334s62.78186667-38.11626667 62.78186667-85.13493334c0-47.01866667-28.1088-85.13386667-62.78186667-85.13386666z m10.464 120.17066666c-12.608 0-22.82986667-15.61493333-22.82986666-34.87786666s10.2208-34.87893333 22.82986666-34.87893334c12.608 0 22.8288 15.616 22.8288 34.87893334s-10.2208 34.87893333-22.8288 34.87893333z m155.05066667-120.17066666c-34.67413333 0-62.78186667 38.11626667-62.78186667 85.13386666 0 47.01866667 28.10773333 85.13493333 62.7808 85.13493334s62.78186667-38.11626667 62.78186667-85.13493334c-0.00106667-47.01866667-28.1088-85.13386667-62.78186667-85.13386666z m10.59413333 88.30613333l-0.03306666 0.00533333c0 0.02346667 0.02453333 0.03626667 0.02453333 0.05973334 0 0.95573333-0.7744 1.7312-1.7312 1.7312-0.7872 0-1.344-0.58133333-1.552-1.30133334l-0.06613333 0.01066667v0.16c-3.99893333-9.95413333-11.07626667-16.6784-19.28533334-16.6784-8.20586667 0-15.28 6.7168-19.28 16.6624l-0.06293333-0.03946667-0.05866667-0.0128c-0.2816 0.5952-0.7712 1.06986667-1.472 1.06986667a1.75786667 1.75786667 0 0 1-1.76-1.75893333c0-0.01706667 0.0192-0.02666667 0.0192-0.04266667l-0.0384-0.0096c-0.06186667-0.95466667-0.17706667-1.88586667-0.17706666-2.8672 0-19.264 10.2208-34.87893333 22.8288-34.87893333s22.82986667 15.616 22.82986666 34.87893333c0 1.0304-0.1184 2.0096-0.1856 3.0112z" fill="#FFFFFF" p-id="7663"></path><path d="M265.80053333 537.88373333c-5.70666667 28.53653333-17.75573333 156.63466667-12.04906666 185.1712s29.712 23.77173333 64.04906666 24.09813334c33.2928 0.3168 72.29333333 9.51253333 72.928-32.34133334 0.6336-41.85386667 0.6336-124.29333333 10.14613334-154.7328 9.51146667-30.43946667-135.07413333-22.1952-135.07413334-22.1952z" fill="#FF3B30" p-id="7664"></path><path d="M258.20906667 599.0272l133.9072 43.29173333c1.16266667-32.87573333 3.51466667-65.46133333 8.7584-82.24106666 9.51253333-30.43946667-135.07413333-22.1952-135.07413334-22.1952-2.07786667 10.38933333-4.99626667 33.9744-7.59146666 61.14453333z" fill="#DD2C00" p-id="7665"></path><path d="M512.63466667 464.95573333c104.36906667 0 188.97706667-38.05013333 188.97706666-61.5136 0-17.75573333-84.608-36.1472-188.97706666-36.1472s-188.97706667 16.48853333-188.97706667 36.1472c0 22.19626667 84.60693333 61.5136 188.97706667 61.5136z" fill="#FFC817" p-id="7666"></path><path d="M514.53653333 487.7856s119.85386667 1.26933333 215.61173334-39.31733333c95.75573333-40.58666667 94.80533333-45.184 105.26933333-45.184 10.46293333 0 22.8288 15.0656 28.0608 42.2528 5.23093333 27.18613333 11.4144 48.5888-10.93973333 61.9072-22.35306667 13.31626667-168.84266667 99.40266667-333.88053334 99.40266666h-8.24426666c-165.03786667 0-311.52746667-86.0864-333.88053334-99.40266666s-16.17066667-34.72-10.93866666-61.9072c5.23093333-27.1872 17.5968-42.25173333 28.0608-42.25173334s9.51253333 4.59733333 105.26933333 45.18186667S514.53546667 487.78666667 514.53546667 487.78666667z" fill="#FF3B30" p-id="7667"></path></svg>